<?xml version="1.0" encoding="UTF-8"?>
<svg xmlns="http://www.w3.org/2000/svg" xmlns:xlink="http://www.w3.org/1999/xlink" width="100pt" height="100pt" viewBox="0 0 100 100" version="1.1">
<g id="surface10663145">
<path style=" stroke:none;fill-rule:nonzero;fill:rgb(100%,100%,100%);fill-opacity:1;" d="M 50 4 C 24.617188 4 4 24.617188 4 50 C 4 75.382812 24.617188 96 50 96 C 75.382812 96 96 75.382812 96 50 C 96 24.617188 75.382812 4 50 4 Z M 50 8 C 73.21875 8 92 26.78125 92 50 C 92 73.21875 73.21875 92 50 92 C 26.78125 92 8 73.21875 8 50 C 8 26.78125 26.78125 8 50 8 Z M 50 22 C 46.6875 22 44 24.6875 44 28 C 44 31.3125 46.6875 34 50 34 C 53.3125 34 56 31.3125 56 28 C 56 24.6875 53.3125 22 50 22 Z M 42 42 L 42 46 L 46 46 L 46 72 L 42 72 L 42 76 L 58 76 L 58 72 L 54 72 L 54 42 Z M 42 42 "/>
</g>
</svg>
